<svg version="1.1" xmlns="http://www.w3.org/2000/svg" viewBox="0 0 425.8737385833231 191.66271441304065" width="425.8737385833231" height="191.66271441304065">
  <!-- svg-source:excalidraw -->
  
  <defs>
    <style class="style-fonts">
      @font-face {
        font-family: "Virgil";
        src: url("https://excalidraw.com/Virgil.woff2");
      }
      @font-face {
        font-family: "Cascadia";
        src: url("https://excalidraw.com/Cascadia.woff2");
      }
    </style>
  </defs>
  <rect x="0" y="0" width="425.8737385833231" height="191.66271441304065" fill="#ffffff"></rect><g transform="translate(10 10) rotate(0 63.399940490722656 12)"><text x="0" y="0" font-family="Virgil, Segoe UI Emoji" font-size="20px" fill="#000000" text-anchor="start" style="white-space: pre;" direction="ltr" dominant-baseline="text-before-edge">struct foo {</text></g><g transform="translate(12.776240217979534 157.66271441304065) rotate(0 7.5399932861328125 12)"><text x="0" y="0" font-family="Virgil, Segoe UI Emoji" font-size="20px" fill="#000000" text-anchor="start" style="white-space: pre;" direction="ltr" dominant-baseline="text-before-edge">};</text></g><g transform="translate(51.519762555753005 43.49297305598543) rotate(0 52.5263671875 11.400000000000006)"><text x="0" y="0" font-family="Virgil, Segoe UI Emoji" font-size="19.84431899832073px" fill="#364fc7" text-anchor="start" style="white-space: pre;" direction="ltr" dominant-baseline="text-before-edge">int32_t c;</text></g><g transform="translate(51.107597424499886 71.10803684993027) rotate(0 58.86994934082031 12)"><text x="0" y="0" font-family="Virgil, Segoe UI Emoji" font-size="20px" fill="#c92a2a" text-anchor="start" style="white-space: pre;" direction="ltr" dominant-baseline="text-before-edge">uint16_t b; </text></g><g transform="translate(51.51976255575289 97.48660525011627) rotate(0 35.17997741699219 12)"><text x="0" y="0" font-family="Virgil, Segoe UI Emoji" font-size="20px" fill="#5c940d" text-anchor="start" style="white-space: pre;" direction="ltr" dominant-baseline="text-before-edge">char a;</text></g><g transform="translate(52.75625794951168 125.10166904406111) rotate(0 34.199974060058594 12)"><text x="0" y="0" font-family="Virgil, Segoe UI Emoji" font-size="20px" fill="#eeee00" text-anchor="start" style="white-space: pre;" direction="ltr" dominant-baseline="text-before-edge">char d;</text></g><g stroke-linecap="round" transform="translate(221.33179663195074 10.519762555752806) rotate(0 23.905577612668594 22.256917087656987)"><path d="M-1.53 1.51 L45.85 -1.1 L46.15 44.7 L1 45.96" stroke="none" stroke-width="0" fill="#4c6ef5"></path><path d="M0.96 -0.47 C16.58 1.33, 35.64 0.25, 46.28 0.94 M-0.45 -0.06 C18.35 0.35, 35.76 -0.88, 48.21 -0.53 M47.26 -1.21 C46.94 14.83, 46.68 30.68, 47.96 42.83 M47.58 0.52 C48.3 8.53, 47.7 18.8, 47.23 44.25 M46.73 45.13 C30.55 45.42, 14.76 44.65, 0.98 43.65 M47.25 45.03 C32.71 45.12, 17.84 45.21, -0.75 44.14 M-1.53 42.66 C-0.9 33.84, 0.85 22.9, -1.4 0.78 M-0.62 43.91 C-0.44 30.24, 0.59 16.65, -1 -0.27" stroke="#000000" stroke-width="1" fill="none"></path></g><g transform="translate(240.21737760155293 20.776679643409807) rotate(0 5.019996643066406 12)"><text x="5.019996643066406" y="0" font-family="Virgil, Segoe UI Emoji" font-size="20px" fill="#000000" text-anchor="middle" style="white-space: pre;" direction="ltr" dominant-baseline="text-before-edge">c</text></g><g stroke-linecap="round" transform="translate(269.55511698854093 10.107597424499971) rotate(0 23.905577612668594 22.256917087656987)"><path d="M0.9 0.97 L47.32 -1.17 L48.15 45.76 L-1.3 42.66" stroke="none" stroke-width="0" fill="#4c6ef5"></path><path d="M0.79 1.04 C14.55 -1.83, 30.2 0.11, 48.1 -1.52 M0.2 0.25 C16.52 -0.07, 33.95 1.02, 48.79 -0.65 M48.59 -1.12 C47.54 14.05, 45.58 32.09, 46.08 45.35 M48.17 0.25 C49.15 17.91, 48.16 35.77, 47.11 45.24 M49.61 45.26 C33.57 43.09, 20.14 44.73, -1.35 43.22 M48.52 45.47 C32.69 44.29, 17.08 45.27, 0.05 45.28 M-1.13 45.67 C0.99 32.73, 0.91 20.31, -1.87 1.73 M-0.15 45.44 C-0.07 27.86, -0.05 9.58, -0.46 0.68" stroke="#000000" stroke-width="1" fill="none"></path></g><g transform="translate(288.4406979581431 20.364514512156973) rotate(0 5.019996643066406 12)"><text x="5.019996643066406" y="0" font-family="Virgil, Segoe UI Emoji" font-size="20px" fill="#000000" text-anchor="middle" style="white-space: pre;" direction="ltr" dominant-baseline="text-before-edge">c</text></g><g stroke-linecap="round" transform="translate(319.0149327388897 11.344092818258673) rotate(0 23.905577612668594 22.256917087656973)"><path d="M-1.3 -1.85 L48.14 -0.49 L47.75 46.29 L1.79 44.87" stroke="none" stroke-width="0" fill="#4c6ef5"></path><path d="M0.29 -1.52 C11.48 1.17, 19.79 0.32, 48.31 -0.38 M0.98 -0.65 C13.2 -1.09, 25.06 0.04, 47.25 0.03 M46.08 0.84 C49.36 11.09, 46.5 19.59, 48.31 46.47 M47.11 0.73 C47.54 15.02, 48.08 29.08, 48.18 43.92 M46.46 43.22 C37.44 43.04, 25.94 45.96, 1.91 44.21 M47.86 45.28 C33.49 45.04, 19.37 44.38, 0.58 45.03 M-1.87 46.24 C1.51 31.29, 0.81 18.01, 1.86 -0.19 M-0.46 45.2 C0.49 29.29, -0.21 12.5, 0.17 0.62" stroke="#000000" stroke-width="1" fill="none"></path></g><g transform="translate(337.90051370849187 21.601009905915646) rotate(0 5.019996643066406 12)"><text x="5.019996643066406" y="0" font-family="Virgil, Segoe UI Emoji" font-size="20px" fill="#000000" text-anchor="middle" style="white-space: pre;" direction="ltr" dominant-baseline="text-before-edge">c</text></g><g stroke-linecap="round" transform="translate(368.0625833579859 11.344092818258616) rotate(0 23.905577612668594 22.256917087657)"><path d="M1.79 0.35 L46.05 -0.03 L46.14 43.69 L-1.67 45.26" stroke="none" stroke-width="0" fill="#4c6ef5"></path><path d="M0.5 -0.38 C16.63 0.97, 36.14 1.86, 46.5 1.1 M-0.56 0.03 C9.92 -1.14, 21.84 -1.05, 48.23 0.99 M48.31 1.95 C47.94 17, 48.19 32.65, 49.27 43.98 M48.18 -0.59 C47.16 16.73, 47.98 34.33, 47.16 44.65 M49.72 44.21 C36.88 43.27, 28.09 44.96, 1.54 43.76 M48.39 45.03 C32.96 44.72, 17.79 43.31, 0.86 45.37 M1.86 44.33 C0.83 31.28, -1.37 17.42, 1.36 0.9 M0.17 45.14 C-0.54 28.07, 0.27 13.22, -0.03 0.89" stroke="#000000" stroke-width="1" fill="none"></path></g><g transform="translate(386.9481643275881 21.60100990591559) rotate(0 5.019996643066406 12)"><text x="5.019996643066406" y="0" font-family="Virgil, Segoe UI Emoji" font-size="20px" fill="#000000" text-anchor="middle" style="white-space: pre;" direction="ltr" dominant-baseline="text-before-edge">c</text></g><g stroke-linecap="round" transform="translate(220.09530123819195 55.85792699357262) rotate(0 23.905577612668594 22.256917087656973)"><path d="M-0.45 -0.61 L48.03 -1.64 L49.61 44.81 L0.95 45.49" stroke="none" stroke-width="0" fill="#fa5252"></path><path d="M1.15 1.14 C8.05 1.5, 19.39 0.25, 48.09 -0.28 M-0.06 -0.8 C10.76 0.51, 23.68 0.63, 47.04 0.51 M49.52 0.68 C46.52 9.04, 47.29 20.35, 47.08 45.6 M48.34 -0.77 C47.53 12.54, 49.1 25.89, 46.83 44.93 M46.45 45.27 C28.05 42.48, 10.82 42.92, 1.35 43.72 M47.08 44.44 C36.12 43.91, 22.41 44.71, 0.79 45.08 M0.44 45.25 C-1.12 35.07, -0.9 25.82, 1.11 -0.82 M-0.33 44.55 C0.47 34.16, -0.8 22.2, 0.03 0.56" stroke="#000000" stroke-width="1" fill="none"></path></g><g transform="translate(238.9208846492004 66.11484408122959) rotate(0 5.079994201660156 12)"><text x="5.079994201660156" y="0" font-family="Virgil, Segoe UI Emoji" font-size="20px" fill="#000000" text-anchor="middle" style="white-space: pre;" direction="ltr" dominant-baseline="text-before-edge">b</text></g><g stroke-linecap="round" transform="translate(268.31862159478237 55.85792699357262) rotate(0 23.905577612668594 22.256917087656973)"><path d="M-1.05 0.16 L47.33 1.29 L46.51 42.94 L0.79 43.1" stroke="none" stroke-width="0" fill="#fa5252"></path><path d="M0.95 0.98 C12.23 0.15, 21.39 -1.86, 47.74 -1.97 M-0.8 -0.53 C19.67 -0.23, 38.89 1.37, 47.59 0.38 M47.48 1.98 C47.02 10.7, 48.25 19.61, 47.76 44.21 M47.44 0 C47.69 11.88, 47.92 25.19, 48.3 44.8 M45.85 43.72 C35.99 43.67, 25.84 44.01, -0.7 43.46 M48.69 43.94 C29.45 45.7, 10.86 44.71, 0.79 45.07 M-1.56 43.54 C1.76 29.27, 1.76 11.94, -1.17 1.37 M0.26 45.03 C1.21 29.58, -0.56 14.23, -0.05 0.4" stroke="#000000" stroke-width="1" fill="none"></path></g><g transform="translate(287.1442050057908 66.11484408122959) rotate(0 5.079994201660156 12)"><text x="5.079994201660156" y="0" font-family="Virgil, Segoe UI Emoji" font-size="20px" fill="#000000" text-anchor="middle" style="white-space: pre;" direction="ltr" dominant-baseline="text-before-edge">b</text></g><g stroke-linecap="round" transform="translate(367.2382530954801 56.68225725607846) rotate(0 23.905577612668594 22.256917087657)"><path d="M0.31 -0.08 L48.04 -1.18 L49.12 45.93 L-0.41 45.25" stroke="none" stroke-width="0" fill="#eeee00"></path><path d="M0.31 -1.84 C8.63 0.58, 20.67 -0.91, 46.72 -0.1 M-0.22 0.02 C13.58 0.82, 27.03 -0.58, 47.6 0.6 M47.45 1.9 C48.84 14.44, 47.35 28.52, 47.56 44.94 M47.18 0.99 C48.04 15.5, 48.71 30.22, 47.42 43.61 M48.9 43.23 C33.95 44.97, 19.6 43.2, 1.73 43.13 M48.59 45.42 C30.27 43.14, 11.5 44.04, -0.63 44.16 M1.27 44.06 C1.88 36.09, 2.26 22.69, 1.42 -1.81 M0.62 44.63 C1.23 30.74, 1.24 19.56, -0.61 -0.26" stroke="#000000" stroke-width="1" fill="none"></path></g><g transform="translate(385.453835896137 66.93917434373543) rotate(0 5.689994812011719 12)"><text x="5.689994812011719" y="0" font-family="Virgil, Segoe UI Emoji" font-size="20px" fill="#000000" text-anchor="middle" style="white-space: pre;" direction="ltr" dominant-baseline="text-before-edge">d</text></g><g stroke-linecap="round" transform="translate(318.6027676076369 55.857926993572505) rotate(0 23.905577612668594 22.256917087656973)"><path d="M0.45 1 L46.51 -0.11 L49.18 45.79 L-0.58 45.3" stroke="none" stroke-width="0" fill="#82c91e"></path><path d="M1.44 0.3 C16.87 0.82, 29.19 -1.54, 49.39 0.37 M0.98 0.76 C12.94 0.04, 26.96 0.62, 47.42 -0.27 M48.71 1.78 C48.87 11.54, 46.54 23.84, 48.75 44.83 M46.94 0.53 C48 13.47, 48.22 25.63, 47.78 44.44 M49.07 45.72 C34.27 42.61, 20.03 43.38, 1.04 44.49 M48.62 43.99 C33.4 43.73, 16.79 43.36, 0.56 44.16 M-1.93 45.09 C-1.11 29.85, -0.99 12.91, -0.26 -1.22 M-0.1 44.63 C0.84 35.4, -0.69 26.01, -0.84 0.41" stroke="#000000" stroke-width="1" fill="none"></path></g><g transform="translate(335.8383470513602 66.11484408122948) rotate(0 6.6699981689453125 12)"><text x="6.6699981689453125" y="0" font-family="Virgil, Segoe UI Emoji" font-size="20px" fill="#000000" text-anchor="middle" style="white-space: pre;" direction="ltr" dominant-baseline="text-before-edge">a</text></g><g transform="translate(198.2505492817878 21.648221099581292) rotate(0 6.879997253417969 12)"><text x="0" y="0" font-family="Virgil, Segoe UI Emoji" font-size="20px" fill="#000000" text-anchor="start" style="white-space: pre;" direction="ltr" dominant-baseline="text-before-edge">0</text></g><g transform="translate(197.42621901928203 68.63504606241275) rotate(0 6.399993896484375 12)"><text x="0" y="0" font-family="Virgil, Segoe UI Emoji" font-size="20px" fill="#000000" text-anchor="start" style="white-space: pre;" direction="ltr" dominant-baseline="text-before-edge">4</text></g></svg>