<svg version="1.1" xmlns="http://www.w3.org/2000/svg" viewBox="0 0 453.0096634965966 208.690544007783" width="453.0096634965966" height="208.690544007783">
  <!-- svg-source:excalidraw -->
  
  <defs>
    <style class="style-fonts">
      @font-face {
        font-family: "Virgil";
        src: url("https://excalidraw.com/Virgil.woff2");
      }
      @font-face {
        font-family: "Cascadia";
        src: url("https://excalidraw.com/Cascadia.woff2");
      }
    </style>
  </defs>
  <rect x="0" y="0" width="453.0096634965966" height="208.690544007783" fill="#ffffff"></rect><g stroke-linecap="round" transform="translate(202.6236287269657 10) rotate(0 29.5 30.5)"><path d="M-1.1 0.39 L59.37 0.14 L60.53 62.04 L0.38 59.12" stroke="none" stroke-width="0" fill="#82c91e"></path><path d="M-0.03 -0.49 C14.8 0.75, 30.83 -0.71, 59.36 0.09 M0.46 0.55 C22.75 -1.29, 45.29 0.39, 58.17 -0.52 M57.39 1.44 C57.65 12.07, 59.21 25.44, 60.46 60.36 M59.89 -0.37 C59.43 17.72, 58.67 34.52, 59.15 60.4 M60.29 61.08 C37 60.73, 14.39 61.37, -0.66 60.26 M58.26 61.62 C37.16 60.5, 14.54 60.03, -0.17 60.58 M1.85 59.89 C-0.12 45.3, -0.04 34.6, 1.81 1.49 M-0.54 60.46 C-0.16 41.76, -0.17 22.65, 0.17 -0.28" stroke="#000000" stroke-width="1" fill="none"></path></g><g transform="translate(225.4536305580204 28.5) rotate(0 6.6699981689453125 12)"><text x="6.6699981689453125" y="0" font-family="Virgil, Segoe UI Emoji" font-size="20px" fill="#000000" text-anchor="middle" style="white-space: pre;" direction="ltr" dominant-baseline="text-before-edge">a</text></g><g stroke-linecap="round" transform="translate(262.47496820195414 10.851339474988379) rotate(0 29.5 30.5)"><path d="M0 0 C0 0, 0 0, 0 0 M0 0 C0 0, 0 0, 0 0 M-0.2 6.14 C1.04 3.94, 4.36 1.63, 5.45 -0.26 M-0.27 6.77 C1.05 4.78, 2.92 2.67, 4.79 0.71 M1.44 11.42 C2.92 11.05, 5.17 7.56, 9.81 -0.62 M0.14 12.17 C3.55 7.8, 5.76 4.69, 11.28 0.54 M-1.98 19.94 C6.33 12.77, 10.11 4.24, 15.53 0.64 M0.09 18.58 C4.11 14.08, 7.67 8.99, 15.14 0.45 M-1.59 25.86 C6.31 16, 10.66 8.96, 21.35 -0.74 M1.14 24.58 C7.29 17.17, 14.5 8.99, 22.21 0.93 M-0.48 28.79 C7.22 18.78, 16.62 9.55, 25.29 2.08 M0.78 31.01 C8.6 20.43, 17.24 11.39, 26.71 0.17 M-2.21 35.43 C7.68 27.45, 17.45 19.75, 30.02 1.3 M-0.74 36.29 C10.19 25.57, 18.87 15.12, 32.66 -0.91 M2.02 42.22 C14.14 27.57, 26.09 11.41, 37.86 -1.02 M0.95 41.96 C13.06 26.38, 27.63 11.95, 37.11 -0.34 M-0.21 48.21 C18.36 30.59, 35.3 11.57, 42.47 1.54 M0.64 49.14 C12.35 34.14, 25.73 20.16, 42.6 0.15 M0.51 54.3 C17.35 35.53, 36.05 13.48, 48.01 0.38 M-0.63 54.48 C16.5 36.26, 32.74 17.46, 48.3 -0.66 M-1.37 59.87 C16.49 41.9, 35.31 20.43, 52.88 -1.64 M-0.47 60.39 C17.97 39.36, 36.73 17.62, 52.42 -0.26 M3.93 62.26 C20.51 45.95, 35.17 25.06, 56.85 -1.54 M3.98 63.25 C21.5 40.69, 42.19 17.8, 57.35 -0.18 M7.45 63.42 C22.73 45.06, 42.89 26.25, 62.83 0.53 M7.82 63.65 C19.37 50.03, 30.8 36.86, 62.12 1.46 M13.19 64.44 C32.2 42.21, 48.01 22.5, 62.63 6.88 M12.94 63.61 C25.12 51.72, 35.1 40.01, 62.16 9.19 M18.56 64.11 C35.35 43.42, 51.82 22.92, 60.63 12.27 M18.31 64.79 C29.9 50.37, 41.15 36.04, 61.69 14.83 M23.42 64.45 C32.38 50.37, 42.28 40.23, 61.08 21.6 M23.86 62.68 C35.62 50.57, 46.03 38.6, 60.9 20.85 M29.28 63.33 C38.28 53.52, 46.96 41.75, 62.4 25.36 M29.54 64.85 C37.32 55.83, 44.07 46.85, 61.12 26.46 M34.98 64.99 C43.31 55.56, 50.2 45.18, 63.64 32.5 M35.81 64.16 C44.1 52.52, 54.16 41.09, 61.13 32.16 M39.89 64.62 C43.86 57.4, 48.89 52.92, 61 37.26 M40.72 63.01 C45.45 58.94, 49.95 53.19, 62.43 39.18 M43.57 62.92 C50.15 56.08, 53.81 50.44, 60.14 45.16 M46.42 62.47 C48.1 60.31, 52.26 56.47, 61.55 45.17 M49.22 62.84 C52.53 60.17, 57.89 55.79, 60.85 51.74 M50.22 64.49 C54.03 60.28, 56.3 56.93, 61.32 51.61 M55.39 63.35 C57.42 61.35, 59.32 60.14, 61.95 56.84 M56.47 63.51 C57.56 61.55, 59.67 59.68, 61.23 57.16" stroke="#000000" stroke-width="0.5" fill="none"></path><path d="M-1.88 -1.26 C21.73 -1.12, 45.12 -1.39, 59.78 -0.55 M-0.15 -0.05 C20.49 -0.32, 40.11 0, 58.97 0.79 M57.51 0.09 C57.67 18.18, 61 41.07, 59.74 60.73 M58.69 0.9 C57.85 16.39, 58.02 32.16, 58.04 61.67 M57.32 60.57 C45.11 62.33, 29.03 62.99, 0.8 60.15 M59.64 60.78 C38.45 61.38, 17.86 61.08, -0.81 60.41 M-0.74 61.08 C0.06 37.93, 0.59 13.97, -1.33 -0.57 M-0.52 61.18 C0.73 41.46, 0.14 23.45, -0.41 -0.98" stroke="#000000" stroke-width="1" fill="none"></path></g><g stroke-linecap="round" transform="translate(205.1299965328348 133.98105782650686) rotate(0 29.5 30.5)"><path d="M0.76 0.02 L60.64 -0.77 L59.9 62.8 L1.07 61.47" stroke="none" stroke-width="0" fill="#eeee00"></path><path d="M-0.43 1.98 C19.58 2.26, 38.58 1.3, 58.15 1.09 M-0.22 0.37 C13.3 0.32, 25.88 -1.19, 58.41 0.98 M59.08 0.13 C60.3 19.62, 60.6 36.59, 58.43 61.31 M59.18 0.33 C58.18 14.02, 59.4 28.14, 58.02 60.13 M59.31 60.18 C43.67 61.14, 32.41 62.36, 1.18 61.92 M58.25 61.2 C40.58 60.75, 21.13 60.61, -0.93 61.7 M-0.66 59.49 C-0.79 41.17, -0.98 18.63, -1.56 0.01 M0.93 60.26 C0.05 45.94, -0.7 30.38, 0.87 -0.99" stroke="#000000" stroke-width="1" fill="none"></path></g><g transform="translate(228.9400017208231 152.48105782650686) rotate(0 5.689994812011719 12)"><text x="5.689994812011719" y="0" font-family="Virgil, Segoe UI Emoji" font-size="20px" fill="#000000" text-anchor="middle" style="white-space: pre;" direction="ltr" dominant-baseline="text-before-edge">d</text></g><g stroke-linecap="round" transform="translate(264.0696103020004 135.2175532202656) rotate(0 29.5 30.5)"><path d="M0 0 C0 0, 0 0, 0 0 M0 0 C0 0, 0 0, 0 0 M-0.84 6.43 C1.16 4.67, 2.53 3.16, 5.69 0.76 M-0.12 6.78 C1.77 4.58, 2.89 2.24, 4.89 0.02 M-0.29 11.28 C3.84 9.98, 3.28 8.05, 11.87 0.81 M0.62 12.41 C3.06 8.24, 6.4 4.35, 9.85 -0.61 M1.41 16.57 C5.86 13.2, 10.06 7.66, 14.65 -0.85 M0.71 19.21 C5.06 12.36, 11.23 4.06, 16.56 0.18 M0.72 25.07 C5.11 18.43, 13.68 11.56, 22.89 -1.19 M0.75 24.31 C5.61 18.12, 11.29 10.98, 21.22 -0.42 M1.64 30.43 C11.03 19.32, 18.96 8.39, 27.76 0.74 M0.63 30.56 C7.44 23.03, 14.67 14.19, 26.37 0.16 M0.47 37.38 C7.84 28.12, 15.12 16.5, 30.09 -0.27 M-1.05 37.67 C8.86 25.55, 19.98 13.98, 31.2 -0.65 M-1.64 42.25 C9.36 30.74, 23.2 18.58, 35.92 -0.88 M-0.63 41.79 C11.47 29.3, 23.08 16.77, 37.33 -0.41 M-0.14 47.63 C12.62 33.22, 30.92 14.52, 44.42 -0.81 M-0.12 48.13 C8.34 38.89, 16.92 28.83, 42.24 -0.4 M0.09 55.57 C8.36 41.27, 18.17 33.75, 47.11 -0.36 M-0.39 54.87 C12.5 40.94, 26.11 25.31, 47.27 0.67 M0.09 62.04 C16.83 38.95, 34.55 17.7, 51.71 -0.04 M0.78 61.57 C17.45 42.89, 33.25 23.56, 53.11 -0.07 M1.17 62.27 C17.26 45.03, 36.33 29.04, 57.47 1.96 M2.82 63.33 C18.59 46.25, 33.05 29.35, 57.7 0.65 M7.05 63.34 C21.66 50.16, 32.15 36.6, 60.96 0.38 M7.08 63.16 C29.51 39.62, 49.23 16.37, 61.82 1.79 M11.66 64.52 C26.8 45.5, 42.05 30.27, 62.07 10.41 M14.29 63.25 C28.27 46.21, 44.25 27.71, 61.58 9.21 M19.68 65.73 C31.07 50.37, 42.22 35.44, 63.72 15.47 M17.77 63.22 C29.63 49.81, 41.77 38.7, 61.94 14.49 M23.72 62.96 C33.45 49.66, 43.96 37.33, 63.31 18.83 M24.33 64.39 C37.81 48.05, 51.69 33.08, 60.69 20.23 M27.66 62.72 C38.75 51.62, 47.83 44.39, 63.16 24.94 M30.15 64.13 C35.73 55.87, 41.82 48.31, 60.65 26.33 M34.48 62.49 C41.58 55.71, 46.95 49.33, 61.08 34.16 M34.32 63.04 C46.21 51.71, 56.16 38.5, 60.83 32.46 M41.5 65.14 C43.85 58.59, 52.02 53.42, 63.02 39.43 M40.78 63.34 C43.95 57.58, 48.43 53.64, 60.75 39.71 M44.26 63.38 C50.79 58.47, 57.57 51.08, 59.49 46.2 M45.8 64.06 C51.02 56.21, 57.5 49.91, 61.54 46.24 M51.63 62.42 C54.33 61.61, 55.66 57.79, 62.16 49.43 M50.02 63.44 C52.48 60.53, 55.88 57.46, 62.14 50.9 M55.52 63.33 C57.89 61.98, 60.1 58.96, 61.97 57.96 M55.9 63.6 C57.73 61.34, 59.93 59.81, 61.25 57.51" stroke="#000000" stroke-width="0.5" fill="none"></path><path d="M1.51 -1.33 C17.51 0.11, 34.85 -1.88, 57.97 0.37 M0.92 -0.41 C18.68 -0.71, 38.57 -0.53, 59.16 0.15 M59.21 1.26 C59.59 16.71, 58.67 32.74, 57.31 59.5 M58.08 0.1 C58.1 20.22, 59.6 39.5, 59.08 60.67 M58.31 62.15 C44.2 61.58, 31.45 63.43, -0.02 62.85 M58.86 60.51 C46.53 60.01, 32.7 61.01, 0.82 60.61 M0.47 59.97 C-1.27 39.98, -0.32 17.51, 0.02 0.33 M-0.19 61.81 C1.23 41.09, 1.24 19.51, -0.93 0.75" stroke="#000000" stroke-width="1" fill="none"></path></g><g stroke-linecap="round" transform="translate(382.3610029715849 11.568013844393363) rotate(0 29.5 30.5)"><path d="M1.32 1.76 L60 0.42 L60.75 62.55 L0.69 62.91" stroke="none" stroke-width="0" fill="#fa5252"></path><path d="M0.4 0.11 C21.65 -1.4, 42.5 -1.42, 60.4 1.13 M-0.76 -0.25 C21.43 -0.15, 41.51 -0.59, 59 -0.53 M57.52 1.24 C58.99 23.71, 58.01 49.69, 57.02 61.76 M59.45 0.9 C60.04 18.58, 58.98 36.34, 59.01 61.12 M59.68 59.32 C43.67 60.73, 33.4 62.54, 0.92 62.45 M59.57 61.24 C45.43 60.55, 32.34 61.6, -0.36 60.97 M0.15 61.65 C-1.18 46.46, -1.09 32.07, -0.4 0.97 M0.14 60.41 C-0.06 37.57, 0.61 15.25, 0.17 -0.68" stroke="#000000" stroke-width="1" fill="none"></path></g><g transform="translate(406.78100876992477 30.068013844393363) rotate(0 5.079994201660156 12)"><text x="5.079994201660156" y="0" font-family="Virgil, Segoe UI Emoji" font-size="20px" fill="#000000" text-anchor="middle" style="white-space: pre;" direction="ltr" dominant-baseline="text-before-edge">b</text></g><g stroke-linecap="round" transform="translate(323.42138920241933 11.568013844393363) rotate(0 29.5 30.5)"><path d="M1.54 -1.87 L60.4 0.12 L60.03 60.83 L-0.97 59.82" stroke="none" stroke-width="0" fill="#fa5252"></path><path d="M0.03 0.23 C17.69 0.24, 38.48 0.89, 57.32 -1.72 M0.46 0.73 C15.86 -1.35, 33.96 0.15, 59.24 -0.26 M58.28 -0.07 C57.75 13.31, 59.26 25.89, 59.65 59.95 M58.8 0.48 C59.43 17.52, 59.6 37.03, 58.41 60.38 M59.34 59.64 C46.88 62.56, 33.12 61.22, 1.75 62.55 M59.4 60.6 C38.67 61.34, 18.71 60.66, -0.79 60.31 M0.47 59.36 C1.48 45.86, 1.35 27.35, -0.24 0 M-0.43 61.31 C-1.27 38.04, -1.01 16.94, -0.13 0.66" stroke="#000000" stroke-width="1" fill="none"></path></g><g transform="translate(347.8413950007592 30.068013844393363) rotate(0 5.079994201660156 12)"><text x="5.079994201660156" y="0" font-family="Virgil, Segoe UI Emoji" font-size="20px" fill="#000000" text-anchor="middle" style="white-space: pre;" direction="ltr" dominant-baseline="text-before-edge">b</text></g><g stroke-linecap="round" transform="translate(321.77272867740766 136.45404861402426) rotate(0 29.5 30.5)"><path d="M0 0 C0 0, 0 0, 0 0 M0 0 C0 0, 0 0, 0 0 M-0.49 6.33 C1.54 5.07, 2.92 2.98, 5.66 0.66 M-0.43 6.78 C1.36 4.62, 3.19 2.57, 5.13 0.19 M0.25 11.55 C3.33 7.96, 6.41 5, 10.9 0.55 M0.07 12.16 C4.05 7.81, 6.33 4.36, 11 0.62 M0.05 18.11 C6.53 10.54, 9.73 5.44, 15.64 0.67 M0.37 19.32 C4.88 12.12, 10.29 4.86, 16.23 1.16 M-1.6 24 C5.63 17.29, 10.4 9.69, 21.31 -1.27 M-0.7 24.03 C7.84 16.54, 13.9 8.35, 20.36 -0.72 M-0.67 29.54 C9.81 17.59, 20.93 6.07, 27.75 1.18 M0.42 30.04 C6.17 22.62, 14.14 14.02, 25.49 -0.7 M0.05 37.06 C5.33 30.81, 14.42 23.16, 33.67 -0.58 M-0.38 36.5 C11.79 21.71, 23.8 7.52, 31.63 0.6 M-0.37 43.47 C12.68 25.52, 28.04 11.15, 36.06 0.38 M-0.64 41.54 C11.02 28.78, 22.77 16.73, 36.67 0.09 M1.51 46.96 C13.9 33.32, 23 21.82, 41.96 -1.06 M-0.08 48.78 C13.11 32.83, 26.8 17.86, 41.9 -0.58 M0.74 56.17 C13.72 38.17, 29.4 18.88, 47.8 0.37 M0.24 55.4 C11.05 41.36, 24.39 27.47, 47.97 -0.65 M-0.78 60.66 C18.23 38.09, 34.17 18.33, 51.23 0.78 M-0.16 60.37 C20.93 36.57, 41.28 12.13, 52.34 -1.04 M4.21 64.27 C14.82 50.79, 27.45 37.86, 58.37 1.56 M2.93 62.77 C22.78 40.1, 42.75 18, 57.27 -0.02 M6.33 65.67 C28.32 42.16, 49.8 16.04, 61.74 0.06 M7.17 64.07 C26.99 43.17, 44.27 22.98, 61.31 2.3 M15.4 62.71 C27.05 47.4, 38.3 35.55, 62.11 9.03 M13.08 63.38 C23.6 53.16, 34.36 40.48, 61.9 9.25 M17 64.91 C34.76 46.75, 49.99 25.09, 60.3 12.52 M19.28 63.81 C35.1 44.67, 50.76 26.8, 62.77 14.37 M25.67 64.85 C37.81 49.13, 51.52 33.44, 60.64 21.38 M23.37 62.61 C35.87 51.5, 44.78 39.34, 62.03 20.71 M28.2 64.66 C39.1 53.09, 45.49 42.64, 61.33 26.66 M29.84 63.61 C38.16 51.8, 48.6 41.11, 62.27 27.1 M35.44 64.37 C40.65 53.35, 50.53 45.49, 61.11 34.29 M35.57 64.36 C44.82 50.91, 55.03 39.62, 61.83 32.69 M41.65 64.48 C47.75 54.23, 52.32 48.42, 59.81 37.83 M39.8 64.54 C46.55 56.07, 52.08 49.71, 60.99 38.51 M44.27 62.28 C50.91 55.82, 57.35 49.13, 62.88 46.32 M45.59 63.12 C52.63 56.88, 58.48 48.99, 61.2 45.18 M51.15 62.55 C52.63 59.19, 56.06 56.69, 61.9 49.31 M49.9 64.61 C54.03 60.12, 56.83 56.83, 61.35 50.56 M56.46 64.01 C57.78 62.42, 59.28 59.96, 61.43 57.66 M56.31 63.23 C58.35 61.05, 59.32 59.36, 61.14 57.6" stroke="#000000" stroke-width="0.5" fill="none"></path><path d="M0.15 0.65 C13.06 -0.04, 27.27 0.16, 58.6 0.97 M0.14 -0.59 C21.34 -1.25, 43.97 -0.86, 59.17 -0.68 M59.42 1.75 C61.08 23.01, 61.44 46.64, 59.81 60.19 M58.08 -0.79 C58.16 14.36, 58.37 30.14, 59.24 60.18 M58.72 60.76 C37.78 62.52, 17.49 61.07, -0.87 61.61 M58.9 60.87 C47.75 61.34, 34.25 61.27, 0.06 61.51 M1.62 60.95 C-0.41 44.89, 1.84 23.82, 1.53 -1.27 M-0.04 61.36 C-1.56 46.81, -0.08 31.52, 0.64 0.55" stroke="#000000" stroke-width="1" fill="none"></path></g><g stroke-linecap="round" transform="translate(382.36100297158504 137.690544007783) rotate(0 29.5 30.5)"><path d="M0 0 C0 0, 0 0, 0 0 M0 0 C0 0, 0 0, 0 0 M-0.61 5.87 C0.72 4.35, 3.21 2.21, 5.3 -0.27 M-0.12 6.38 C1.51 3.88, 3.74 1.87, 5.35 0 M1.44 12.94 C2.47 7.63, 6.38 4.82, 11.4 -1.26 M0.27 12.47 C2.89 8.76, 5.31 7.26, 10.25 -0.04 M1.54 18.13 C5.64 13.41, 5.58 9.73, 15.24 0.34 M-0.73 18.55 C3.13 14.17, 5.92 10.38, 16.59 0.24 M-1.04 25.8 C7.42 15.22, 14.5 6.4, 20.88 -1.4 M0.71 23.66 C7.13 16.37, 14.73 7.49, 20.59 -0.03 M-1.98 28.58 C8.09 20.12, 19.13 9.5, 24.98 1.83 M-0.23 31.32 C9.22 19.44, 18.62 8.06, 25.93 -0.64 M1.16 38.57 C6.94 30.06, 14.64 20.57, 30.15 -0.52 M-0.19 36.97 C7.86 27.32, 16.34 15.72, 31.22 -0.58 M-0.2 42.26 C8.97 29.52, 21.37 17.82, 38.45 -1.62 M-0.33 42.62 C8.14 32.98, 16.33 23.75, 36.9 -0.74 M-1.01 49.24 C15.64 34.03, 30.46 16.58, 41.18 1.12 M-0.05 48.38 C11.63 36.37, 23.09 23.2, 41.71 0.38 M-1.48 55.35 C20.53 34.46, 36.45 11.53, 48.23 -1.52 M0.75 55.47 C11.37 42.87, 22.11 29.35, 47.65 -0.06 M-1.73 59.16 C16.61 43.09, 30.63 28.8, 53.87 -0.09 M0.69 61.56 C19.48 36.92, 40.99 12.67, 52.43 -0.98 M2.61 65.36 C18.17 46.74, 28.11 35.05, 58.07 1.93 M2.03 63.95 C20.29 42.41, 38.15 22.46, 58.5 -0.03 M8.49 63.23 C20.48 50.33, 36.43 32.36, 62.34 0.86 M8.3 62.98 C20.35 47.86, 34.55 31.9, 61.46 2.85 M15.26 65.1 C32.98 43.75, 47.36 24.14, 61.67 10.21 M12.87 64.21 C25.13 50.93, 38.56 36.28, 61.73 7.81 M19.19 64.76 C29.81 49.65, 45.84 35.34, 62.27 14.61 M19.09 63.77 C34.64 47.04, 49.13 27.24, 62.93 14.74 M24.71 62.86 C32.67 52.16, 39.22 45.36, 63.03 19.29 M24.17 63.57 C34.83 52.38, 44.48 41.12, 60.95 19.68 M29.68 63.41 C40.04 54.34, 48.56 43.02, 59.92 25.52 M30.15 64.63 C40.1 51.51, 52.34 39.23, 61.1 26.02 M35.23 64.17 C44.34 54.78, 51.83 46.87, 62.64 31.26 M34.37 63.34 C40.38 58.24, 45.76 51.59, 62.28 32.1 M39.06 65.15 C45.66 56.2, 50.64 48.88, 61.15 37.87 M40.4 64.79 C46.32 56.82, 53.68 47.71, 62.32 39.67 M45.24 62.95 C51.85 57.22, 56.94 49.71, 60.22 44.05 M44.57 62.96 C49.61 58.07, 53.23 54.68, 62.07 44.73 M49.71 63.38 C53.79 57.38, 59.64 55.44, 61.95 52.28 M50.85 64.05 C53.51 59.34, 58.04 55.14, 62.53 50.14 M56.64 63.42 C57.8 62.02, 58.35 61.19, 61.9 57.9 M55.94 63.21 C57.27 62.04, 58.39 61.1, 61.58 57.03" stroke="#000000" stroke-width="0.5" fill="none"></path><path d="M-1.36 1.32 C19.73 0.9, 36.36 1.65, 60.55 0.69 M-0.4 -0.6 C23.08 -1.08, 45.72 -1.03, 58.31 -0.26 M57.36 1.19 C61.09 16.44, 59.26 30.54, 59 62.21 M59.31 -0.98 C57.95 20.41, 58.83 42.14, 59.66 61.77 M60.03 60.83 C45.84 59.86, 36.23 60.98, -0.7 62.67 M58.36 60.36 C37.67 61.3, 14.42 61.81, -0.98 61.23 M1.09 62.55 C2.02 38.57, -0.05 17.44, 1.96 0.96 M-0.76 61.53 C0.32 40.95, 1 22.25, 0.68 0.82" stroke="#000000" stroke-width="1" fill="none"></path></g><g stroke-linecap="round" transform="translate(203.48133600782313 72.15628813857069) rotate(0 29.5 30.5)"><path d="M-0.08 -1.38 L57.91 -0.15 L59.31 62.82 L-1.78 60.73" stroke="none" stroke-width="0" fill="#228be6"></path><path d="M-0.2 -0.26 C13.23 1.97, 21.95 1.83, 59.12 1.03 M0.81 -0.03 C16.85 1.18, 35.17 -0.46, 59.76 -0.64 M58.91 0.71 C57.61 14.88, 60.56 27.56, 60.28 62.09 M58.78 -0.47 C60.48 23.52, 59.73 45.49, 59.95 60.24 M60.27 62.27 C39.55 62.42, 17.32 62.47, -0.01 61.08 M58.72 60.92 C41.56 61.76, 23.54 61.42, 0.84 61.38 M-0.84 62.92 C-0.35 42.19, 0.43 22.08, 0.74 -0.86 M0.07 60.69 C0.95 45.96, 1.34 31.63, 0.17 0.36" stroke="#000000" stroke-width="1" fill="none"></path></g><g stroke-linecap="round" transform="translate(264.4817754332535 73.39278353232947) rotate(0 29.5 30.5)"><path d="M1.01 -1.53 L57.2 -1.31 L60.71 60.6 L-0.59 60.32" stroke="none" stroke-width="0" fill="#228be6"></path><path d="M0.08 0.02 C19.06 0.45, 34.52 -0.16, 59.67 1.25 M0.38 0.2 C18.32 -0.62, 35.97 0.47, 58.86 0.36 M58.14 -1.33 C57.24 19.67, 59.2 39.06, 59.79 59.42 M59.36 -0.04 C57.77 22.58, 58.39 46.41, 59.91 60.11 M60.63 62.13 C41.15 60.14, 25.38 60.95, 0.96 59.47 M59.17 61.54 C46.04 60.35, 32.67 61.89, -0.48 60.99 M1.67 60.69 C2.43 45.96, -1.34 32.17, -0.38 0.01 M-0.6 61.11 C-0.06 47.26, -0.75 34, 0.97 -0.09" stroke="#000000" stroke-width="1" fill="none"></path></g><g stroke-linecap="round" transform="translate(323.83355433367234 75.04144405734115) rotate(0 29.5 30.5)"><path d="M1.08 -1.58 L57.49 -1.98 L57.1 59.56 L0.13 61.31" stroke="none" stroke-width="0" fill="#228be6"></path><path d="M-0.86 -1.33 C17.38 -0.38, 38.52 -0.83, 59.79 -1.58 M0.36 -0.04 C21.68 -0.64, 44.67 0.05, 59.91 -0.89 M60.63 1.13 C57.6 16.34, 58.73 34.62, 59.96 59.47 M59.17 0.54 C59.4 13.21, 59.44 28.62, 58.52 60.99 M60.67 60.69 C47 60.7, 29.32 61.29, -0.38 61.01 M58.4 61.11 C45.68 60.75, 31.97 60.97, 0.97 60.91 M-1.31 62.71 C0.07 39.02, -0.21 17.28, -0.38 -1.33 M0.44 60.58 C0.13 41.24, 0.78 20.16, -0.67 0.04" stroke="#000000" stroke-width="1" fill="none"></path></g><g stroke-linecap="round" transform="translate(384.0096634965966 75.04144405734104) rotate(0 29.5 30.5)"><path d="M-1.56 -1.97 L57.65 -0.96 L58.4 62.1 L-0.42 60.66" stroke="none" stroke-width="0" fill="#228be6"></path><path d="M-0.02 -1.29 C18.89 1.52, 42.91 -0.03, 60.9 -0.67 M0.01 -0.79 C11.83 0.14, 23.79 0.22, 58.72 -0.26 M58.82 1.01 C57.44 10.58, 57.66 26.48, 58.6 60.41 M58.34 0.31 C58.12 16.98, 59.16 32.04, 58.77 61.44 M59.08 62.08 C37.29 59.1, 16.76 58.71, -1.44 61.13 M59.77 61.61 C41.11 61.52, 21.53 61.47, -0.04 61.1 M-1.86 59.69 C-1.6 42.96, 1.64 27.66, -0.67 1.77 M-0.21 60.75 C0.45 43.84, -0.23 27.6, -0.43 0.47" stroke="#000000" stroke-width="1" fill="none"></path></g><g transform="translate(10 14.865115181701412) rotate(0 63.399940490722685 12)"><text x="0" y="0" font-family="Virgil, Segoe UI Emoji" font-size="20px" fill="#000000" text-anchor="start" style="white-space: pre;" direction="ltr" dominant-baseline="text-before-edge">struct foo {</text></g><g transform="translate(36.378568400186225 42.06801384439336) rotate(0 35.17997741699219 12)"><text x="0" y="0" font-family="Virgil, Segoe UI Emoji" font-size="20px" fill="#5c940d" text-anchor="start" style="white-space: pre;" direction="ltr" dominant-baseline="text-before-edge">char a;</text></g><g transform="translate(36.37856840018611 72.98039868836139) rotate(0 53.86994934082031 12)"><text x="0" y="0" font-family="Virgil, Segoe UI Emoji" font-size="20px" fill="#c92a2a" text-anchor="start" style="white-space: pre;" direction="ltr" dominant-baseline="text-before-edge">uint16_t b;</text></g><g transform="translate(36.790733531439116 102.65628813857063) rotate(0 52.94995880126953 12)"><text x="0" y="0" font-family="Virgil, Segoe UI Emoji" font-size="20px" fill="#364fc7" text-anchor="start" style="white-space: pre;" direction="ltr" dominant-baseline="text-before-edge">int32_t c;</text></g><g transform="translate(12.472990787517631 164.8932229577598) rotate(0 7.5399932861328125 12)"><text x="0" y="0" font-family="Virgil, Segoe UI Emoji" font-size="20px" fill="#000000" text-anchor="start" style="white-space: pre;" direction="ltr" dominant-baseline="text-before-edge">};</text></g><g transform="translate(37.20289866269201 131.09568219502137) rotate(0 34.199974060058594 12)"><text x="0" y="0" font-family="Virgil, Segoe UI Emoji" font-size="20px" fill="#eeee00" text-anchor="start" style="white-space: pre;" direction="ltr" dominant-baseline="text-before-edge">char d;</text></g><g transform="translate(185.5823459137386 29.70305990680606) rotate(0 6.879997253417969 12)"><text x="0" y="0" font-family="Virgil, Segoe UI Emoji" font-size="20px" fill="#000000" text-anchor="start" style="white-space: pre;" direction="ltr" dominant-baseline="text-before-edge">0</text></g><g transform="translate(184.34585051997982 89.87916906973061) rotate(0 6.399993896484375 12)"><text x="0" y="0" font-family="Virgil, Segoe UI Emoji" font-size="20px" fill="#000000" text-anchor="start" style="white-space: pre;" direction="ltr" dominant-baseline="text-before-edge">4</text></g><g transform="translate(184.75801565123294 150.87960849516082) rotate(0 7.649993896484375 12)"><text x="0" y="0" font-family="Virgil, Segoe UI Emoji" font-size="20px" fill="#000000" text-anchor="start" style="white-space: pre;" direction="ltr" dominant-baseline="text-before-edge">8</text></g><g transform="translate(347.1510773648784 91.93999472599512) rotate(0 5.019996643066406 12)"><text x="0" y="0" font-family="Virgil, Segoe UI Emoji" font-size="20px" fill="#000000" text-anchor="start" style="white-space: pre;" direction="ltr" dominant-baseline="text-before-edge">c</text></g><g transform="translate(226.72484397099782 89.83195787606496) rotate(0 5.019996643066406 12)"><text x="0" y="0" font-family="Virgil, Segoe UI Emoji" font-size="20px" fill="#000000" text-anchor="start" style="white-space: pre;" direction="ltr" dominant-baseline="text-before-edge">c</text></g><g transform="translate(289.3739439214399 89.41979274481207) rotate(0 5.019996643066406 12)"><text x="0" y="0" font-family="Virgil, Segoe UI Emoji" font-size="20px" fill="#000000" text-anchor="start" style="white-space: pre;" direction="ltr" dominant-baseline="text-before-edge">c</text></g><g transform="translate(408.4896668535302 90.65628813857074) rotate(0 5.019996643066406 12)"><text x="0" y="0" font-family="Virgil, Segoe UI Emoji" font-size="20px" fill="#000000" text-anchor="start" style="white-space: pre;" direction="ltr" dominant-baseline="text-before-edge">c</text></g></svg>